<mxfile host="app.diagrams.net" agent="Mozilla/5.0 (Windows NT 10.0; Win64; x64) AppleWebKit/537.36 (KHTML, like Gecko) Chrome/131.0.0.0 Safari/537.36" version="24.9.2">
  <diagram name="Trang-1" id="4Ykq_JnBVHRwmCek45K6">
    <mxGraphModel dx="1434" dy="784" grid="1" gridSize="10" guides="1" tooltips="1" connect="1" arrows="1" fold="1" page="1" pageScale="1" pageWidth="827" pageHeight="1169" background="#E8ECB1" math="0" shadow="0">
      <root>
        <mxCell id="0" />
        <mxCell id="1" parent="0" />
        <mxCell id="eaUWsblg-MyuU0YMuGpd-2" value="&lt;font style=&quot;font-size: 20px;&quot;&gt;Train&lt;/font&gt;" style="rounded=0;whiteSpace=wrap;html=1;fillStyle=auto;" vertex="1" parent="1">
          <mxGeometry x="340" y="140" width="120" height="60" as="geometry" />
        </mxCell>
        <mxCell id="eaUWsblg-MyuU0YMuGpd-3" value="&lt;font style=&quot;font-size: 20px;&quot;&gt;Weak Jungle Bot&lt;/font&gt;" style="ellipse;whiteSpace=wrap;html=1;aspect=fixed;" vertex="1" parent="1">
          <mxGeometry x="10" y="320" width="100" height="100" as="geometry" />
        </mxCell>
        <mxCell id="eaUWsblg-MyuU0YMuGpd-4" value="&lt;font style=&quot;font-size: 20px;&quot;&gt;Collect Experience&lt;/font&gt;" style="rounded=0;whiteSpace=wrap;html=1;fillStyle=auto;" vertex="1" parent="1">
          <mxGeometry x="220" y="340" width="120" height="60" as="geometry" />
        </mxCell>
        <mxCell id="eaUWsblg-MyuU0YMuGpd-5" value="&lt;font style=&quot;font-size: 20px;&quot;&gt;Evaluate&lt;/font&gt;" style="rounded=0;whiteSpace=wrap;html=1;fillStyle=auto;" vertex="1" parent="1">
          <mxGeometry x="475" y="340" width="120" height="60" as="geometry" />
        </mxCell>
        <mxCell id="eaUWsblg-MyuU0YMuGpd-6" value="&lt;font style=&quot;font-size: 20px;&quot;&gt;Stronger Jungle Bot&lt;/font&gt;" style="ellipse;whiteSpace=wrap;html=1;aspect=fixed;" vertex="1" parent="1">
          <mxGeometry x="720" y="320" width="100" height="100" as="geometry" />
        </mxCell>
        <mxCell id="eaUWsblg-MyuU0YMuGpd-7" value="" style="endArrow=classic;html=1;rounded=0;" edge="1" parent="1" source="eaUWsblg-MyuU0YMuGpd-4" target="eaUWsblg-MyuU0YMuGpd-2">
          <mxGeometry width="50" height="50" relative="1" as="geometry">
            <mxPoint x="390" y="410" as="sourcePoint" />
            <mxPoint x="440" y="360" as="targetPoint" />
          </mxGeometry>
        </mxCell>
        <mxCell id="eaUWsblg-MyuU0YMuGpd-8" value="" style="endArrow=classic;html=1;rounded=0;" edge="1" parent="1" source="eaUWsblg-MyuU0YMuGpd-2" target="eaUWsblg-MyuU0YMuGpd-5">
          <mxGeometry width="50" height="50" relative="1" as="geometry">
            <mxPoint x="390" y="410" as="sourcePoint" />
            <mxPoint x="440" y="360" as="targetPoint" />
          </mxGeometry>
        </mxCell>
        <mxCell id="eaUWsblg-MyuU0YMuGpd-9" value="" style="endArrow=classic;html=1;rounded=0;" edge="1" parent="1" source="eaUWsblg-MyuU0YMuGpd-5" target="eaUWsblg-MyuU0YMuGpd-4">
          <mxGeometry width="50" height="50" relative="1" as="geometry">
            <mxPoint x="390" y="410" as="sourcePoint" />
            <mxPoint x="440" y="360" as="targetPoint" />
          </mxGeometry>
        </mxCell>
        <mxCell id="eaUWsblg-MyuU0YMuGpd-10" value="" style="endArrow=classic;html=1;rounded=0;" edge="1" parent="1" source="eaUWsblg-MyuU0YMuGpd-3" target="eaUWsblg-MyuU0YMuGpd-4">
          <mxGeometry width="50" height="50" relative="1" as="geometry">
            <mxPoint x="390" y="410" as="sourcePoint" />
            <mxPoint x="440" y="360" as="targetPoint" />
          </mxGeometry>
        </mxCell>
        <mxCell id="eaUWsblg-MyuU0YMuGpd-11" value="" style="endArrow=classic;html=1;rounded=0;" edge="1" parent="1" source="eaUWsblg-MyuU0YMuGpd-6" target="eaUWsblg-MyuU0YMuGpd-5">
          <mxGeometry width="50" height="50" relative="1" as="geometry">
            <mxPoint x="390" y="410" as="sourcePoint" />
            <mxPoint x="440" y="360" as="targetPoint" />
          </mxGeometry>
        </mxCell>
        <mxCell id="eaUWsblg-MyuU0YMuGpd-12" value="Update Neural Network&lt;div&gt;weights from the game results&lt;/div&gt;&lt;div&gt;by using gradient descent&lt;/div&gt;" style="text;html=1;align=center;verticalAlign=middle;whiteSpace=wrap;rounded=0;" vertex="1" parent="1">
          <mxGeometry x="205" y="60" width="390" height="80" as="geometry" />
        </mxCell>
        <mxCell id="eaUWsblg-MyuU0YMuGpd-13" value="Play thousands of games against&lt;div&gt;itself and collect the game record&lt;/div&gt;" style="text;html=1;align=center;verticalAlign=middle;whiteSpace=wrap;rounded=0;" vertex="1" parent="1">
          <mxGeometry x="85" y="400" width="390" height="70" as="geometry" />
        </mxCell>
        <mxCell id="eaUWsblg-MyuU0YMuGpd-14" value="Match the updated bot&lt;div&gt;against the previous version of itself,&lt;/div&gt;&lt;div&gt;other Go bots, and human players&lt;/div&gt;" style="text;html=1;align=center;verticalAlign=middle;whiteSpace=wrap;rounded=0;" vertex="1" parent="1">
          <mxGeometry x="340" y="400" width="390" height="80" as="geometry" />
        </mxCell>
      </root>
    </mxGraphModel>
  </diagram>
</mxfile>
